/vscmnt/brussel_pixiu_data/_data_brussel/112/vsc11236/PredSimResults/SUBJ10_Falisse2022/SUBJ10_Falisse2022_11471746.mot
version=1
nRows=4
nColumns=124
inDegrees=yes
endheader
                time	         pelvis_tilt	         pelvis_list	     pelvis_rotation	           pelvis_tx	           pelvis_ty	           pelvis_tz	       hip_flexion_r	     hip_adduction_r	      hip_rotation_r	        knee_angle_r	       ankle_angle_r	    subtalar_angle_r	         mtp_angle_r	       hip_flexion_l	     hip_adduction_l	      hip_rotation_l	        knee_angle_l	       ankle_angle_l	    subtalar_angle_l	         mtp_angle_l	    lumbar_extension	      lumbar_bending	     lumbar_rotation	          arm_flex_r	           arm_add_r	           arm_rot_r	        elbow_flex_r	          arm_flex_l	           arm_add_l	           arm_rot_l	        elbow_flex_l	glut_med1_r/activation	glut_med2_r/activation	glut_med3_r/activation	glut_min1_r/activation	glut_min2_r/activation	glut_min3_r/activation	semimem_r/activation	semiten_r/activation	bifemlh_r/activation	bifemsh_r/activation	    sar_r/activation	add_long_r/activation	add_brev_r/activation	add_mag1_r/activation	add_mag2_r/activation	add_mag3_r/activation	    tfl_r/activation	   pect_r/activation	   grac_r/activation	glut_max1_r/activation	glut_max2_r/activation	glut_max3_r/activation	iliacus_r/activation	  psoas_r/activation	quad_fem_r/activation	    gem_r/activation	   peri_r/activation	rect_fem_r/activation	vas_med_r/activation	vas_int_r/activation	vas_lat_r/activation	med_gas_r/activation	lat_gas_r/activation	 soleus_r/activation	tib_post_r/activation	flex_dig_r/activation	flex_hal_r/activation	tib_ant_r/activation	per_brev_r/activation	per_long_r/activation	per_tert_r/activation	ext_dig_r/activation	ext_hal_r/activation	glut_med1_l/activation	glut_med2_l/activation	glut_med3_l/activation	glut_min1_l/activation	glut_min2_l/activation	glut_min3_l/activation	semimem_l/activation	semiten_l/activation	bifemlh_l/activation	bifemsh_l/activation	    sar_l/activation	add_long_l/activation	add_brev_l/activation	add_mag1_l/activation	add_mag2_l/activation	add_mag3_l/activation	    tfl_l/activation	   pect_l/activation	   grac_l/activation	glut_max1_l/activation	glut_max2_l/activation	glut_max3_l/activation	iliacus_l/activation	  psoas_l/activation	quad_fem_l/activation	    gem_l/activation	   peri_l/activation	rect_fem_l/activation	vas_med_l/activation	vas_int_l/activation	vas_lat_l/activation	med_gas_l/activation	lat_gas_l/activation	 soleus_l/activation	tib_post_l/activation	flex_dig_l/activation	flex_hal_l/activation	tib_ant_l/activation	per_brev_l/activation	per_long_l/activation	per_tert_l/activation	ext_dig_l/activation	ext_hal_l/activation	 ercspn_r/activation	 ercspn_l/activation	 intobl_r/activation	 intobl_l/activation	 extobl_r/activation	 extobl_l/activation	
          0.00000000	         -6.50749375	         -1.59991896	          3.15542188	          0.00000000	          0.82397645	         -0.00434140	         34.17933316	          3.63719871	          2.49920373	        -12.22793050	         14.37710842	         -5.95823482	          0.23701491	        -14.62585560	          1.62694692	         10.13181604	         -9.01239907	          2.67210550	         -1.93141647	         31.25022225	         -2.93730195	          0.34024966	         -1.36050662	        -26.98208177	        -14.21437686	          8.96452026	         25.56896546	         28.54755206	        -13.53015466	         19.38548175	         59.14601521	          0.01885322	          0.01000156	          0.04557877	          0.01002529	          0.01000239	          0.01562679	          0.12669754	          0.03416846	          0.03360168	          0.01000445	          0.01406666	          0.02354378	          0.09823611	          0.13734713	          0.08209704	          0.04011566	          0.01001116	          0.01667728	          0.06602171	          0.01186073	          0.02283411	          0.03374211	          0.01667959	          0.01667986	          0.12406048	          0.01729532	          0.01974322	          0.01406628	          0.07111805	          0.07443643	          0.07155655	          0.01000019	          0.01000051	          0.01000083	          0.02139958	          0.01406654	          0.01407392	          0.30225027	          0.26396192	          0.16602915	          0.11332899	          0.35248599	          0.16771222	          0.11230734	          0.07322839	          0.05701148	          0.16185097	          0.12906065	          0.10140965	          0.02299042	          0.01186963	          0.01390716	          0.02593624	          0.06340633	          0.04923371	          0.02316133	          0.01565795	          0.01317952	          0.01001412	          0.19117248	          0.02091772	          0.01678781	          0.01729217	          0.01189966	          0.01200325	          0.23839340	          0.32237905	          0.01978293	          0.01978533	          0.07913560	          0.09057048	          0.01000062	          0.01000071	          0.01000098	          0.15790480	          0.22518339	          0.26698549	          0.27189455	          0.33975613	          0.34930395	          0.01000086	          0.01000008	          0.01000003	          0.01000028	          0.01000014	          0.01000162	          0.03704240	          0.01000015	          0.01761864	          0.01406574	          0.06946604	          0.01000037	
          0.01115673	         -6.49168478	         -1.85988168	          3.42227098	          0.01592420	          0.82253517	         -0.00412824	         33.30270410	          4.00139213	          2.77153913	        -12.54303278	         13.65931844	         -6.33325767	          0.22579813	        -14.37710786	          1.37282895	          9.66372262	        -11.40763032	          2.47201469	         -1.35101198	         32.10345557	         -2.81504635	          0.79861306	         -1.40994112	        -28.08052293	        -14.17468041	          9.25426585	         25.40255951	         28.52097410	        -13.53981787	         19.37711246	         60.82980367	          0.14496491	          0.01000047	          0.24124787	          0.01000257	          0.01000105	          0.17737654	          0.10683254	          0.02881212	          0.03875246	          0.01669638	          0.01186154	          0.01985266	          0.08283392	          0.11581259	          0.06922537	          0.03382636	          0.01000279	          0.01406932	          0.05576841	          0.01000183	          0.01925482	          0.02845249	          0.01406445	          0.01406468	          0.11129361	          0.01458606	          0.14182687	          0.01186085	          0.05996751	          0.06276560	          0.06033723	          0.01526359	          0.01407196	          0.01476428	          0.01804434	          0.01186112	          0.01186734	          0.33782239	          0.24168177	          0.13999756	          0.12973626	          0.44992743	          0.14141680	          0.20261720	          0.06174688	          0.04807261	          0.14311213	          0.10882529	          0.08550959	          0.01939008	          0.01000916	          0.01172712	          0.02186971	          0.05346490	          0.07408997	          0.01953058	          0.01320418	          0.01113121	          0.01004467	          0.16119854	          0.01763942	          0.01415604	          0.01458208	          0.01003616	          0.01012260	          0.20101552	          0.27183300	          0.01668120	          0.01668339	          0.06672789	          0.07636992	          0.01000725	          0.01000571	          0.01000174	          0.13314677	          0.18987671	          0.25425398	          0.23148945	          0.28648757	          0.29690209	          0.01000009	          0.01000100	          0.01024374	          0.01000048	          0.01000014	          0.01000056	          0.03438780	          0.01606323	          0.02345786	          0.01186037	          0.05857441	          0.01000008	
          0.02231346	         -6.47461653	         -2.11251451	          3.67064618	          0.03184817	          0.82112814	         -0.00388508	         32.40152775	          4.34903562	          3.05534658	        -12.83585058	         12.92289622	         -6.70843316	          0.22867604	        -14.00761384	          1.11931832	          9.19443262	        -13.99171127	          2.23143503	         -0.76375354	         32.61943156	         -2.70066476	          1.25587693	         -1.45263509	        -28.94300651	        -14.11790948	          9.74381413	         24.89214946	         28.39648644	        -13.54672512	         19.32539104	         62.33051419	          0.19133456	          0.20810373	          0.29121974	          0.09839907	          0.14250565	          0.14956835	          0.09008218	          0.04560188	          0.03267673	          0.01407943	          0.01000205	          0.01674008	          0.06984647	          0.09765499	          0.07637807	          0.05191362	          0.01000062	          0.01186474	          0.05121288	          0.13518101	          0.09300656	          0.05983217	          0.01185932	          0.01185950	          0.12548136	          0.01232897	          0.11959207	          0.01000123	          0.06014106	          0.06886062	          0.07298717	          0.01287041	          0.01186563	          0.01244938	          0.01521516	          0.01000148	          0.01000671	          0.42804074	          0.28474688	          0.14982904	          0.40903390	          0.47339099	          0.28225607	          0.20218750	          0.05206557	          0.04053528	          0.17261760	          0.09176267	          0.07210253	          0.02743942	          0.01000185	          0.01000238	          0.01844079	          0.04508219	          0.10279086	          0.01646886	          0.01113498	          0.01001128	          0.01075775	          0.13592436	          0.01487459	          0.01193695	          0.01229733	          0.01001878	          0.01000609	          0.16949815	          0.22921216	          0.01406580	          0.01406784	          0.05626559	          0.07806866	          0.02210175	          0.02017769	          0.01550219	          0.11227057	          0.16010579	          0.23141464	          0.22155111	          0.24157092	          0.25295024	          0.01000020	          0.01000140	          0.01000101	          0.01000089	          0.01000028	          0.01000114	          0.06326643	          0.03947566	          0.01978123	          0.01000078	          0.04939048	          0.01000006	
          0.03347019	         -6.45738373	         -2.35276978	          3.89878606	          0.04764019	          0.81998003	         -0.00360639	         31.55998743	          4.70556863	          3.34346546	        -13.18060139	         12.07346625	         -7.07316441	          0.22315737	        -13.51171791	          0.86603168	          8.73622812	        -16.73374115	          1.91250109	         -0.16917721	         32.67447937	         -2.59918483	          1.70562830	         -1.48977511	        -29.54271057	        -14.03884092	         10.38711455	         24.07633149	         28.18916686	        -13.54304204	         19.25220421	         63.57530786	          0.24963889	          0.28037106	          0.32811062	          0.08302091	          0.12019730	          0.15188400	          0.07595813	          0.04541294	          0.03192318	          0.01187213	          0.01000094	          0.01411556	          0.05889535	          0.08234442	          0.07093165	          0.06372704	          0.01000092	          0.01000846	          0.04318417	          0.17729978	          0.12045020	          0.07207615	          0.01000017	          0.01000022	          0.10774451	          0.01253584	          0.10084172	          0.01000016	          0.12073123	          0.12307594	          0.11449022	          0.01085247	          0.01000526	          0.01049744	          0.01286778	          0.01056514	          0.01001725	          0.48669668	          0.29436640	          0.15296791	          0.43484843	          0.51101065	          0.28047940	          0.19141373	          0.04390219	          0.03417973	          0.15990991	          0.07737529	          0.06079757	          0.03550765	          0.01000239	          0.01000284	          0.01554950	          0.03801380	          0.09288501	          0.08234573	          0.01001607	          0.01008537	          0.02221678	          0.11461283	          0.05797590	          0.01006628	          0.01037101	          0.01000404	          0.01000359	          0.14292240	          0.19327381	          0.01186046	          0.01186239	          0.04744369	          0.06582829	          0.02972650	          0.02680990	          0.02691364	          0.09466757	          0.13500267	          0.19520439	          0.19569389	          0.20369541	          0.21329069	          0.01000014	          0.01228341	          0.01406649	          0.01000074	          0.01000019	          0.01000074	          0.07106225	          0.06153751	          0.01667977	          0.01000003	          0.04164651	          0.01000005	
